<?xml version="1.0" standalone="no"?>
<!DOCTYPE svg PUBLIC "-//W3C//DTD SVG 20010904//EN"
 "http://www.w3.org/TR/2001/REC-SVG-20010904/DTD/svg10.dtd">
<svg version="1.0" xmlns="http://www.w3.org/2000/svg"
 width="260.000000pt" height="260.000000pt" viewBox="0 0 260.000000 260.000000"
 preserveAspectRatio="xMidYMid meet">
<metadata>
Created by potrace 1.11, written by Peter Selinger 2001-2013
</metadata>
<g transform="translate(0.000000,260.000000) scale(0.100000,-0.100000)"
fill="#000000" stroke="none">
<path d="M0 1300 l0 -1300 1300 0 1300 0 0 1300 0 1300 -1300 0 -1300 0 0
-1300z m941 514 c67 -20 133 -54 179 -93 l35 -30 -39 -40 -39 -40 -40 35 c-56
51 -117 75 -206 81 -104 7 -181 -15 -233 -67 -31 -31 -38 -45 -38 -77 0 -79
51 -112 285 -183 223 -68 298 -117 325 -216 25 -88 -10 -199 -80 -255 -145
-117 -465 -95 -624 43 l-37 33 39 39 40 38 64 -44 c93 -66 145 -83 255 -82 80
1 98 4 149 30 74 37 96 67 96 129 0 91 -44 122 -262 185 -246 72 -326 123
-348 227 -23 106 27 207 128 258 89 46 250 59 351 29z m965 5 c220 -41 337
-228 321 -514 -12 -212 -87 -344 -236 -414 -50 -23 -68 -26 -171 -26 -103 0
-121 3 -170 26 -30 14 -79 50 -107 79 l-53 54 0 -232 0 -232 -45 0 -45 0 0
625 0 625 45 0 45 0 0 -72 0 -71 48 49 c91 96 216 131 368 103z"/>
<path d="M1687 1716 c-88 -32 -148 -97 -184 -200 -27 -77 -24 -270 5 -350 35
-94 81 -147 162 -188 36 -18 63 -22 135 -22 79 -1 97 2 147 27 104 51 160 145
176 292 24 221 -51 390 -195 439 -57 20 -193 20 -246 2z"/>
</g>
</svg>
